<?xml version="1.0" encoding="UTF-8"?>
<svg width="384" height="384" viewBox="0 0 384 384" xmlns="http://www.w3.org/2000/svg" role="img" aria-label="Fouet Logo">
  <defs>
    <linearGradient id="tealGradient" x1="0" y1="0" x2="1" y2="1">
      <stop offset="0%" stop-color="#40B1C4"/>
      <stop offset="100%" stop-color="#1e88e5"/>
    </linearGradient>
  </defs>
  <!-- Teal circle background -->
  <circle cx="192" cy="192" r="160" fill="url(#tealGradient)"/>
  <!-- Stylized F using path -->
  <path d="M150 120c0-18 14-32 32-32h44c10 0 18 8 18 18s-8 18-18 18h-36c-6 0-10 4-10 10v16h40c10 0 18 8 18 18s-8 18-18 18h-40v80c0 10-8 18-18 18s-18-8-18-18V120z" fill="#fff"/>
  <!-- Brown smile arc -->
  <path d="M96 264c28 28 62 40 96 40s68-12 96-40" fill="none" stroke="#a86a34" stroke-width="16" stroke-linecap="round"/>
</svg>